<?xml version="1.0" encoding="UTF-8" standalone="no"?>
<svg
   xmlns:dc="http://purl.org/dc/elements/1.1/"
   xmlns:cc="http://creativecommons.org/ns#"
   xmlns:rdf="http://www.w3.org/1999/02/22-rdf-syntax-ns#"
   xmlns:svg="http://www.w3.org/2000/svg"
   xmlns="http://www.w3.org/2000/svg"
   xmlns:sodipodi="http://sodipodi.sourceforge.net/DTD/sodipodi-0.dtd"
   xmlns:inkscape="http://www.inkscape.org/namespaces/inkscape"
   id="svg8"
   xml:space="preserve"
   style="fill:#000000"
   viewBox="0 0 102.4 44.8"
   y="0px"
   x="0px"
   version="1.1"
   width="480"
   height="210"
   sodipodi:docname="classifier-bias-PRESC_v3_black_margin3.svg"
   inkscape:version="0.92.5 (2060ec1f9f, 2020-04-08)"
   inkscape:export-filename="/home/muriel/Feina/2020-01-20_Mozilla_Outreachy/MozFest/imatge/classifier_bias_black_PRESC_v3_marge.png"
   inkscape:export-xdpi="240"
   inkscape:export-ydpi="240"><sodipodi:namedview
     pagecolor="#ffffff"
     bordercolor="#666666"
     borderopacity="1"
     objecttolerance="10"
     gridtolerance="10"
     guidetolerance="10"
     inkscape:pageopacity="0"
     inkscape:pageshadow="2"
     inkscape:window-width="1920"
     inkscape:window-height="990"
     id="namedview79"
     showgrid="false"
     inkscape:zoom="1.4758316"
     inkscape:cx="254.59007"
     inkscape:cy="25.036809"
     inkscape:window-x="0"
     inkscape:window-y="31"
     inkscape:window-maximized="1"
     inkscape:current-layer="g1013"
     fit-margin-top="10"
     fit-margin-left="10"
     fit-margin-bottom="10"
     fit-margin-right="10"
     showguides="true"
     inkscape:guide-bbox="true" /><metadata
     id="metadata14"><rdf:RDF><cc:Work
         rdf:about=""><dc:format>image/svg+xml</dc:format><dc:type
           rdf:resource="http://purl.org/dc/dcmitype/StillImage" /><dc:title></dc:title></cc:Work></rdf:RDF></metadata><defs
     id="defs12" /><g
     id="g1013"
     transform="matrix(0.59672377,0,0,0.59672377,19.728314,-5.7530109)"><g
       id="g1014"
       transform="translate(0,7.507661)"><path
         d="m 19.320506,34.084443 c 0,0 -3.6992,-0.994479 -11.5393699,1.135093 2.01346,-4.889824 4.7939499,-5.752734 4.7939499,-5.752734 0,0 -1.01752,-3.432311 -6.0403699,-1.150541 -0.57527,-4.50631 4.3145499,-5.9445 4.3145499,-5.9445 0,0 1.89666,-1.83698 -4.3310099,-6.47323 2.17913,-0.56846 5.6568599,1.05467 5.6568599,1.05467 0,0 1.167,-3.30642 -0.6547,-5.03224 -1.8216999,-1.72582 0.43146,-3.2119367 1.65391,-4.0988167 0.11985,2.9482757 6.11228,4.0029467 6.11228,4.0029467 0,0 2.26138,-1.56415 0.15886,-3.6405797 -2.25946,-2.23143 0.14922,-4.84047 0.14922,-4.84047 0,0 0.69246,1.93616 3.6763,2.275 3.14755,0.35743 2.82381,3.910928 3.925628,4.7199237 l 0.04573,6.862454 c -2.29784,0.192654 -4.287774,0.09248 -8.184779,-0.542906 -2.51746,-0.246139 -4.05239,3.792468 -3.7847,6.993888 -0.79425,0.54738 -2.04478,2.195298 0.51551,3.493258 -0.60693,2.917359 3.7656,8.138085 7.57527,9.274711 l -0.33795,4.667667"
         style="fill:none;stroke:#000000;stroke-width:1.27999997;stroke-linecap:butt;stroke-linejoin:miter;stroke-miterlimit:4;stroke-dasharray:none;stroke-opacity:1"
         id="path4641-6-8"
         inkscape:connector-curvature="0" /><circle
         r="1.7066667"
         cy="6.8425932"
         cx="35.363281"
         id="path4580-27"
         style="fill:#000000;stroke:#000000;stroke-width:0.85333335;stroke-miterlimit:4;stroke-dasharray:none;stroke-opacity:1" /><circle
         r="1.7066667"
         cy="8.4923983"
         cx="41.59058"
         id="path4580-0"
         style="fill:#000000;stroke:#000000;stroke-width:0.85333335;stroke-miterlimit:4;stroke-dasharray:none;stroke-opacity:1" /><circle
         r="1.28"
         cy="23.846886"
         cx="71.822647"
         id="path4580-6"
         style="fill:#000000;fill-opacity:0;stroke:#000000;stroke-width:0.63999999;stroke-miterlimit:4;stroke-dasharray:none;stroke-opacity:0.2216749" /><path
         id="path4639-0"
         d="m 76.88394,58.59053 25.54208,0.178912 c 0,0 -3.290124,-6.740466 -7.159194,-8.849767 -3.1352,-1.709214 -10.12734,-3.474082 -11.69523,-4.739006 0,-1.24643 -0.2766,-2.27924 -0.2766,-2.27924 l -2.966247,1.059229 -3.355701,5.473437 z"
         style="fill:none;stroke:#000000;stroke-width:1.27999997;stroke-linecap:butt;stroke-linejoin:miter;stroke-miterlimit:4;stroke-dasharray:none;stroke-opacity:1"
         inkscape:connector-curvature="0" /><circle
         r="1.28"
         cy="23.846889"
         cx="80.997078"
         id="path4580-93-2"
         style="fill:#000000;fill-opacity:1;stroke:#000000;stroke-width:0.63999999;stroke-miterlimit:4;stroke-dasharray:none;stroke-opacity:1" /><path
         d="m 81.376316,43.378909 -0.6658,-6.616735 c 4.910546,-1.630396 7.494236,-7.770846 6.700976,-9.093088 1.33171,-0.316994 1.93258,-3.072624 0.45341,-3.606 0.16589,-2.337317 0.240703,-2.320971 -1.025192,-4.994559 -2.300204,2.165864 -7.638504,-0.225021 -9.792524,-2.860794 l -0.0567,-9.7695359 c 1.436511,-0.00642 3.60913,0.2088238 5.015848,0.692479 2.813436,0.9673103 5.464484,3.0082519 7.541944,6.4967239 8.161508,-8.6917577 11.734122,15.885643 6.735498,32.81455 -2.10405,-3.282268 -4.677398,-4.214729 -6.169779,-8.339527 -1.162913,-3.214179 -0.468775,-9.769963 -2.995881,-7.899897"
         style="fill:none;stroke:#000000;stroke-width:1.27999997;stroke-linecap:butt;stroke-linejoin:miter;stroke-miterlimit:4;stroke-dasharray:none;stroke-opacity:1"
         id="path4664-1"
         inkscape:connector-curvature="0" /><circle
         r="1.28"
         cy="22.644936"
         cx="22.017826"
         id="path4580-6-7"
         style="fill:#000000;stroke:#000000;stroke-width:0.63999999;stroke-miterlimit:4;stroke-dasharray:none;stroke-opacity:1" /><path
         id="path4639-0-9"
         d="m 27.189021,51.910025 -0.910465,-9.824676 -7.45047,-2.069282 c 0,0 1.59954,3.447347 2.84264,5.627603 -8.61646,1.042967 -11.44288,0.293107 -15.3502599,2.51894 -4.1992,2.392072 -3.50415,9.909594 -3.50415,9.909594 l 24.3727059,0.208252 z"
         style="fill:none;stroke:#000000;stroke-width:1.27999997;stroke-linecap:butt;stroke-linejoin:miter;stroke-miterlimit:4;stroke-dasharray:none;stroke-opacity:1"
         inkscape:connector-curvature="0" /><circle
         r="1.28"
         cy="22.644943"
         cx="31.192251"
         id="path4580-93-2-0"
         style="fill:#000000;fill-opacity:0;stroke:#000000;stroke-width:0.63999999;stroke-miterlimit:4;stroke-dasharray:none;stroke-opacity:0.18719213" /><path
         id="path4821"
         d="M 64.164346,18.397375 Z"
         style="fill:none;stroke:#000000;stroke-width:0.21333334px;stroke-linecap:butt;stroke-linejoin:miter;stroke-opacity:1"
         inkscape:connector-curvature="0" /><path
         id="path4895"
         d="m 27.189021,10.551641 h 8.135594 V 5.2635053 l 0.20339,9.2203387 5.966102,-0.0678 V 8.5177383 l 0.07602,3.1816227 3.788387,2.648886 0.271185,8.881356 3.593221,0.135592 -5.559324,-0.135592 0.0678,4.440678 -3.698321,0.0678 -5.056411,5.11935 m 8.754732,-5.18715 0.185237,7.993365 -0.04965,-2.688187 -8.890319,-0.118028 0.04964,3.620597 -3.665917,0.0653 0.03918,3.731084 3.789445,1.63e-4 -0.0678,6.005876 h 11.79662 l 5.898305,6.067797 0.135594,4.644066 -0.135594,-4.644066 6.305085,-2.542374 9.946215,-3.898305 0.263958,-7.267109 4.569486,3.795471 c -0.05252,-2.880004 -0.04128,-14.706726 -0.04128,-14.706726 l 3.024339,-0.081 -10.811323,-0.105979 -0.0571,-9.397349 0.111488,-6.629036 6.417942,-5.0997843 h 4.338983"
         style="fill:none;stroke:#000000;stroke-width:1.27999997;stroke-linecap:butt;stroke-linejoin:miter;stroke-miterlimit:4;stroke-dasharray:none;stroke-opacity:1"
         inkscape:connector-curvature="0" /><circle
         r="1.7066667"
         cy="23.3071"
         cx="48.926556"
         id="path4580-0-3"
         style="fill:#000000;stroke:#000000;stroke-width:0.85333335;stroke-miterlimit:4;stroke-dasharray:none;stroke-opacity:1" /><circle
         r="1.7066667"
         cy="27.717529"
         cx="43.844975"
         id="path4580-0-6"
         style="fill:#000000;stroke:#000000;stroke-width:0.85333335;stroke-miterlimit:4;stroke-dasharray:none;stroke-opacity:1" /><circle
         r="1.7066667"
         cy="36.306618"
         cx="44.00354"
         id="path4580-0-1"
         style="fill:#000000;stroke:#000000;stroke-width:0.85333335;stroke-miterlimit:4;stroke-dasharray:none;stroke-opacity:1" /><circle
         r="1.7066667"
         cy="22.879053"
         cx="31.420435"
         id="path4580-0-2"
         style="fill:#000000;stroke:#000000;stroke-width:0.85333335;stroke-miterlimit:4;stroke-dasharray:none;stroke-opacity:1" /><circle
         r="1.7066667"
         cy="25.037851"
         cx="36.638424"
         id="path4580-0-9"
         style="fill:#000000;stroke:#000000;stroke-width:0.85333335;stroke-miterlimit:4;stroke-dasharray:none;stroke-opacity:1" /><circle
         r="1.7066667"
         cy="14.551641"
         cx="35.324615"
         id="path4580-0-31"
         style="fill:#000000;stroke:#000000;stroke-width:0.85333335;stroke-miterlimit:4;stroke-dasharray:none;stroke-opacity:1" /><circle
         r="1.7066667"
         cy="46.248962"
         cx="35.084919"
         id="path4580-0-94"
         style="fill:#000000;stroke:#000000;stroke-width:0.85333335;stroke-miterlimit:4;stroke-dasharray:none;stroke-opacity:1" /><circle
         r="1.7066667"
         cy="58.077065"
         cx="52.68055"
         id="path4580-0-7"
         style="fill:#000000;stroke:#000000;stroke-width:0.85333335;stroke-miterlimit:4;stroke-dasharray:none;stroke-opacity:1" /><circle
         r="1.7066667"
         cy="51.243309"
         cx="43.837658"
         id="path4580-0-8"
         style="fill:#000000;stroke:#000000;stroke-width:0.85333335;stroke-miterlimit:4;stroke-dasharray:none;stroke-opacity:1" /><circle
         r="1.7066667"
         cy="55.284363"
         cx="37.398228"
         id="path4580-0-4"
         style="fill:#000000;stroke:#000000;stroke-width:0.85333335;stroke-miterlimit:4;stroke-dasharray:none;stroke-opacity:1" /><circle
         r="1.7066667"
         cy="51.432995"
         cx="30.985628"
         id="path4580-0-5"
         style="fill:#000000;stroke:#000000;stroke-width:0.85333335;stroke-miterlimit:4;stroke-dasharray:none;stroke-opacity:1" /><circle
         r="1.7066667"
         cy="32.99514"
         cx="35.060486"
         id="path4580-0-0"
         style="fill:#000000;stroke:#000000;stroke-width:0.85333335;stroke-miterlimit:4;stroke-dasharray:none;stroke-opacity:1" /><circle
         r="1.7066667"
         cy="40.31638"
         cx="31.358454"
         id="path4580-0-36"
         style="fill:#000000;stroke:#000000;stroke-width:0.85333335;stroke-miterlimit:4;stroke-dasharray:none;stroke-opacity:1" /><circle
         r="1.7066667"
         cy="49.469421"
         cx="73.883148"
         id="path4580-0-10"
         style="fill:#000000;stroke:#000000;stroke-width:0.85333335;stroke-miterlimit:4;stroke-dasharray:none;stroke-opacity:1" /><circle
         r="1.7066667"
         cy="17.667692"
         cx="61.770329"
         id="path4580-0-63"
         style="fill:#000000;stroke:#000000;stroke-width:0.85333335;stroke-miterlimit:4;stroke-dasharray:none;stroke-opacity:1" /><circle
         r="1.7066667"
         cy="6.5234756"
         cx="72.460419"
         id="path4580-0-20"
         style="fill:#000000;stroke:#000000;stroke-width:0.85333335;stroke-miterlimit:4;stroke-dasharray:none;stroke-opacity:1" /><circle
         r="1.7066667"
         cy="23.726923"
         cx="72.058052"
         id="path4580-0-61"
         style="fill:#000000;stroke:#000000;stroke-width:0.85333335;stroke-miterlimit:4;stroke-dasharray:none;stroke-opacity:1" /><circle
         r="1.7066667"
         cy="54.180096"
         cx="69.156998"
         id="path4580-0-55"
         style="fill:#000000;stroke:#000000;stroke-width:0.85333335;stroke-miterlimit:4;stroke-dasharray:none;stroke-opacity:1" /><circle
         r="1.7066667"
         cy="49.56628"
         cx="60.179287"
         id="path4580-0-47"
         style="fill:#000000;stroke:#000000;stroke-width:0.85333335;stroke-miterlimit:4;stroke-dasharray:none;stroke-opacity:1" /><circle
         r="1.7066667"
         cy="24.367998"
         cx="62.057972"
         id="path4580-0-65"
         style="fill:#000000;stroke:#000000;stroke-width:0.85333335;stroke-miterlimit:4;stroke-dasharray:none;stroke-opacity:1" /><circle
         r="1.7066667"
         cy="13.527452"
         cx="70.499306"
         id="path4580-0-69"
         style="fill:#000000;stroke:#000000;stroke-width:0.85333335;stroke-miterlimit:4;stroke-dasharray:none;stroke-opacity:1" /><circle
         r="1.7066667"
         cy="33.536167"
         cx="65.891861"
         id="path4580-0-61-3"
         style="fill:#000000;stroke:#000000;stroke-width:0.85333335;stroke-miterlimit:4;stroke-dasharray:none;stroke-opacity:1" /><path
         id="path5068"
         d="m 27.189021,14.619437 8.338984,-0.135593"
         style="fill:none;stroke:#000000;stroke-width:1.27999997;stroke-linecap:butt;stroke-linejoin:miter;stroke-miterlimit:4;stroke-dasharray:none;stroke-opacity:1"
         inkscape:connector-curvature="0" /><path
         id="path5074"
         d="M 31.332781,22.827704 V 14.58212"
         style="fill:none;stroke:#000000;stroke-width:1.27999997;stroke-linecap:butt;stroke-linejoin:miter;stroke-miterlimit:4;stroke-dasharray:none;stroke-opacity:1"
         inkscape:connector-curvature="0" /><path
         id="path5076"
         d="m 31.38072,18.513154 h 13.8545"
         style="fill:none;stroke:#000000;stroke-width:1.27999997;stroke-linecap:butt;stroke-linejoin:miter;stroke-miterlimit:4;stroke-dasharray:none;stroke-opacity:1"
         inkscape:connector-curvature="0" /><path
         id="path5080"
         d="m 40.927473,18.721133 v 6.149604 h -3.322036"
         style="fill:none;stroke:#000000;stroke-width:1.27999997;stroke-linecap:butt;stroke-linejoin:miter;stroke-miterlimit:4;stroke-dasharray:none;stroke-opacity:1"
         inkscape:connector-curvature="0" /><path
         id="path5082"
         d="m 27.189021,28.662011 5.418267,0.0339 3.96834,-3.487179"
         style="fill:none;stroke:#000000;stroke-width:1.27999997;stroke-linecap:butt;stroke-linejoin:miter;stroke-miterlimit:4;stroke-dasharray:none;stroke-opacity:1"
         inkscape:connector-curvature="0" /><path
         id="path5088"
         d="m 34.578849,35.839781 c 0,0 0,0 0,0 z"
         style="fill:none;stroke:#000000;stroke-width:0.21333334px;stroke-linecap:butt;stroke-linejoin:miter;stroke-opacity:1"
         inkscape:connector-curvature="0" /><path
         id="path5090"
         d="m 31.188963,40.210542 -3.999941,-0.02397"
         style="fill:none;stroke:#000000;stroke-width:1.27999997;stroke-linecap:butt;stroke-linejoin:miter;stroke-miterlimit:4;stroke-dasharray:none;stroke-opacity:1"
         inkscape:connector-curvature="0" /><path
         id="path5092"
         d="m 31.053428,51.432998 -3.864406,-0.0678"
         style="fill:none;stroke:#000000;stroke-width:1.27999997;stroke-linecap:butt;stroke-linejoin:miter;stroke-miterlimit:4;stroke-dasharray:none;stroke-opacity:1"
         inkscape:connector-curvature="0" /><path
         id="path5094"
         d="m 27.189022,58.280456 h 3.999999 L 31.053428,51.433"
         style="fill:none;stroke:#000000;stroke-width:1.27999997;stroke-linecap:butt;stroke-linejoin:miter;stroke-miterlimit:4;stroke-dasharray:none;stroke-opacity:1"
         inkscape:connector-curvature="0" /><path
         id="path5096"
         d="m 31.093084,55.474466 h 6.136248"
         style="fill:none;stroke:#000000;stroke-width:1.27999997;stroke-linecap:butt;stroke-linejoin:miter;stroke-miterlimit:4;stroke-dasharray:none;stroke-opacity:1"
         inkscape:connector-curvature="0" /><path
         id="path5098"
         d="m 31.053428,51.475642 h 4.237215 v -5.349367"
         style="fill:none;stroke:#000000;stroke-width:1.27999997;stroke-linecap:butt;stroke-linejoin:miter;stroke-miterlimit:4;stroke-dasharray:none;stroke-opacity:1"
         inkscape:connector-curvature="0" /><path
         id="path5100"
         d="m 27.17651,33.072381 h 8.902277"
         style="fill:none;stroke:#000000;stroke-width:1.27999997;stroke-linecap:butt;stroke-linejoin:miter;stroke-miterlimit:4;stroke-dasharray:none;stroke-opacity:1"
         inkscape:connector-curvature="0" /><path
         id="path5102"
         d="M 35.290644,46.126275 H 27.189022"
         style="fill:none;stroke:#000000;stroke-width:1.27999997;stroke-linecap:butt;stroke-linejoin:miter;stroke-miterlimit:4;stroke-dasharray:none;stroke-opacity:1"
         inkscape:connector-curvature="0" /><path
         id="path5104"
         d="M 70.499306,13.527452 H 76.88394"
         style="fill:none;stroke:#000000;stroke-width:1.27999997;stroke-linecap:butt;stroke-linejoin:miter;stroke-miterlimit:4;stroke-dasharray:none;stroke-opacity:1"
         inkscape:connector-curvature="0" /><path
         id="path5106"
         d="M 66.136817,17.789275 H 61.943558"
         style="fill:none;stroke:#000000;stroke-width:1.27999997;stroke-linecap:butt;stroke-linejoin:miter;stroke-miterlimit:4;stroke-dasharray:none;stroke-opacity:1"
         inkscape:connector-curvature="0" /><path
         id="path5108"
         d="M 62.014026,24.457645 H 65.89712"
         style="fill:none;stroke:#000000;stroke-width:1.27999997;stroke-linecap:butt;stroke-linejoin:miter;stroke-miterlimit:4;stroke-dasharray:none;stroke-opacity:1"
         inkscape:connector-curvature="0" /><path
         id="path5110"
         d="m 71.937491,23.690614 v 3.835155"
         style="fill:none;stroke:#000000;stroke-width:1.27999997;stroke-linecap:butt;stroke-linejoin:miter;stroke-miterlimit:4;stroke-dasharray:none;stroke-opacity:1"
         inkscape:connector-curvature="0" /><path
         id="path5112"
         d="m 43.813202,58.237634 v -7.482601 l 3.694916,4.426665 0.145979,6.968948 5.238532,3.806722"
         style="fill:none;stroke:#000000;stroke-width:1.27999997;stroke-linecap:butt;stroke-linejoin:miter;stroke-miterlimit:4;stroke-dasharray:none;stroke-opacity:1"
         inkscape:connector-curvature="0"
         sodipodi:nodetypes="ccccc" /><path
         id="path5114"
         d="m 44.239869,50.755033 h -4.847458 v -4.61017"
         style="fill:none;stroke:#000000;stroke-width:1.27999997;stroke-linecap:butt;stroke-linejoin:miter;stroke-miterlimit:4;stroke-dasharray:none;stroke-opacity:1"
         inkscape:connector-curvature="0" /><path
         id="path5116"
         d="M 69.204943,54.132161 H 76.88394"
         style="fill:none;stroke:#000000;stroke-width:1.27999997;stroke-linecap:butt;stroke-linejoin:miter;stroke-miterlimit:4;stroke-dasharray:none;stroke-opacity:1"
         inkscape:connector-curvature="0" /><path
         id="path5118"
         d="m 60.177044,50.377366 -0.07228,12.177833"
         style="fill:none;stroke:#000000;stroke-width:1.27999997;stroke-linecap:butt;stroke-linejoin:miter;stroke-miterlimit:4;stroke-dasharray:none;stroke-opacity:1"
         inkscape:connector-curvature="0"
         sodipodi:nodetypes="cc" /><path
         id="path5120"
         d="m 63.787784,58.878167 v -6.903281 l 5.134308,-2.205214 0.145349,-3.862103"
         style="fill:none;stroke:#000000;stroke-width:1.27999997;stroke-linecap:butt;stroke-linejoin:miter;stroke-miterlimit:4;stroke-dasharray:none;stroke-opacity:1"
         inkscape:connector-curvature="0" /><path
         id="path5122"
         d="m 73.183917,54.27598 v 4.31455 h 3.700023"
         style="fill:none;stroke:#000000;stroke-width:1.27999997;stroke-linecap:butt;stroke-linejoin:miter;stroke-miterlimit:4;stroke-dasharray:none;stroke-opacity:1"
         inkscape:connector-curvature="0" /><path
         id="path5124"
         d="m 74.23987,13.738081 v 6.432543 h 2.64407"
         style="fill:none;stroke:#000000;stroke-width:1.27999997;stroke-linecap:butt;stroke-linejoin:miter;stroke-miterlimit:4;stroke-dasharray:none;stroke-opacity:1"
         inkscape:connector-curvature="0" /><path
         id="path5126"
         d="M 74.094765,17.789275 H 66.136817"
         style="fill:none;stroke:#000000;stroke-width:1.27999997;stroke-linecap:butt;stroke-linejoin:miter;stroke-miterlimit:4;stroke-dasharray:none;stroke-opacity:1"
         inkscape:connector-curvature="0" /><path
         id="path5128"
         d="m 74.307667,30.348251 -5.084746,-3e-6"
         style="fill:none;stroke:#000000;stroke-width:1.27999997;stroke-linecap:butt;stroke-linejoin:miter;stroke-miterlimit:4;stroke-dasharray:none;stroke-opacity:1"
         inkscape:connector-curvature="0" /><path
         id="path5130"
         d="m 69.165349,29.678269 -0.09791,16.2293"
         style="fill:none;stroke:#000000;stroke-width:1.27999997;stroke-linecap:butt;stroke-linejoin:miter;stroke-miterlimit:4;stroke-dasharray:none;stroke-opacity:1"
         inkscape:connector-curvature="0" /><path
         id="path5132"
         d="m 73.900885,42.435931 2e-6,5.742829"
         style="fill:none;stroke:#000000;stroke-width:1.27999997;stroke-linecap:butt;stroke-linejoin:miter;stroke-miterlimit:4;stroke-dasharray:none;stroke-opacity:1"
         inkscape:connector-curvature="0" /><path
         id="path5134"
         d="M 73.183919,58.590532 63.155124,58.471888"
         style="fill:none;stroke:#000000;stroke-width:1.27999997;stroke-linecap:butt;stroke-linejoin:miter;stroke-miterlimit:4;stroke-dasharray:none;stroke-opacity:1"
         inkscape:connector-curvature="0" /><circle
         r="1.7066667"
         cy="45.738083"
         cx="68.951729"
         id="path4580-0-10-7"
         style="fill:#000000;stroke:#000000;stroke-width:0.85333335;stroke-miterlimit:4;stroke-dasharray:none;stroke-opacity:1" /><path
         id="path5151"
         d="m 59.970079,53.141884 -3.037634,1.421733 -0.120216,11.223155"
         style="fill:none;stroke:#000000;stroke-width:1.27999997;stroke-linecap:butt;stroke-linejoin:miter;stroke-miterlimit:4;stroke-dasharray:none;stroke-opacity:1"
         inkscape:connector-curvature="0"
         sodipodi:nodetypes="ccc" /><circle
         r="1.7066667"
         cy="42.144859"
         cx="73.934784"
         id="path4580-0-10-4"
         style="fill:#000000;stroke:#000000;stroke-width:0.85333335;stroke-miterlimit:4;stroke-dasharray:none;stroke-opacity:1" /><path
         id="path5168"
         d="M 73.900885,42.115855 H 76.88394"
         style="fill:none;stroke:#000000;stroke-width:1.27999997;stroke-linecap:butt;stroke-linejoin:miter;stroke-miterlimit:4;stroke-dasharray:none;stroke-opacity:1"
         inkscape:connector-curvature="0" /><path
         id="path5170"
         d="M 73.998886,36.682205 H 76.88394"
         style="fill:none;stroke:#000000;stroke-width:1.27999997;stroke-linecap:butt;stroke-linejoin:miter;stroke-miterlimit:4;stroke-dasharray:none;stroke-opacity:1"
         inkscape:connector-curvature="0" /><path
         id="path5172"
         d="m 65.873152,33.374382 h 3.499577"
         style="fill:none;stroke:#000000;stroke-width:1.27999997;stroke-linecap:butt;stroke-linejoin:miter;stroke-miterlimit:4;stroke-dasharray:none;stroke-opacity:1"
         inkscape:connector-curvature="0" /><path
         id="path5172-5"
         d="m 73.473471,49.434095 h 3.499577"
         style="fill:none;stroke:#000000;stroke-width:1.27999997;stroke-linecap:butt;stroke-linejoin:miter;stroke-miterlimit:4;stroke-dasharray:none;stroke-opacity:1"
         inkscape:connector-curvature="0" /><path
         id="path5328"
         d="m 94.381383,43.070871 c -1.899383,-2.071444 -2.551746,-2.930699 -3.121312,-4.11122 -0.620463,-1.286009 -0.823162,-2.136783 -1.225156,-5.142302 -0.394752,-2.951358 -0.702358,-3.922244 -1.377123,-4.346573 -0.372659,-0.234348 -0.436209,-0.353911 -0.440678,-0.829094 -0.0037,-0.397033 0.07616,-0.62886 0.280393,-0.813559 0.778692,-0.704233 1.12784,-2.221987 0.742973,-3.229743 -0.126116,-0.330232 -0.317614,-0.673714 -0.425555,-0.763297 -0.140269,-0.116411 -0.196254,-0.461536 -0.196254,-1.209792 0,-0.680913 -0.09007,-1.303204 -0.257621,-1.780008 -0.337696,-0.960952 -1.204034,-2.834786 -1.310622,-2.834786 -0.04596,0 -0.330027,0.210962 -0.631257,0.468805 -1.059698,0.907062 -2.628041,0.943822 -4.712269,0.11045 -1.618496,-0.64715 -3.721014,-2.107235 -3.860557,-2.68095 -0.03628,-0.149152 -0.08328,-2.185004 -0.104444,-4.524115 l -0.03848,-4.2529288 1.0147,0.091959 c 3.232231,0.292928 5.558226,1.3810055 7.804645,3.6509368 0.900463,0.909887 2.588109,3.180801 2.819089,3.793396 0.03235,0.0858 0.370784,-0.165533 0.752066,-0.558527 1.785995,-1.840843 3.103454,-2.016395 4.395945,-0.585761 2.93709,3.251007 4.165242,14.013916 2.799104,24.529918 -0.223968,1.724017 -0.50115,3.220689 -1.178528,6.363597 -0.03616,0.167798 -0.104401,0.299495 -0.151642,0.292657 -0.04724,-0.0068 -0.757073,-0.744411 -1.577412,-1.639063 z"
         style="fill:#000000;fill-opacity:1;stroke:#000000;stroke-width:0.81355935;stroke-miterlimit:4;stroke-dasharray:none;stroke-opacity:1"
         inkscape:connector-curvature="0" /><path
         id="path5330"
         d="m 81.262739,57.9089 -3.627119,-0.03843 0.0034,-4.099479 0.0034,-4.09948 1.589803,-2.565623 1.589802,-2.565626 0.81356,-0.308736 c 0.447456,-0.169805 0.883838,-0.311883 0.969737,-0.315731 0.09199,-0.0041 0.196477,0.340232 0.25424,0.837909 0.06,0.516988 0.183575,0.915111 0.318397,1.025796 0.489118,0.401554 2.31017,1.152672 5.983049,2.467796 2.125423,0.761034 4.444069,1.660403 5.152542,1.998598 1.15789,0.552723 1.439471,0.767279 2.784851,2.121952 1.372696,1.382181 2.57967,2.991377 3.850869,5.134174 l 0.30165,0.508474 -8.180549,-0.03159 c -4.499302,-0.01737 -9.812753,-0.04888 -11.807667,-0.07001 z"
         style="fill:#000000;fill-opacity:1;stroke:#000000;stroke-width:0.81355935;stroke-miterlimit:4;stroke-dasharray:none;stroke-opacity:1"
         inkscape:connector-curvature="0" /><path
         id="path5332"
         d="M 13.567821,57.460721 C 8.4966343,57.411402 4.1400032,57.362385 3.8864183,57.351793 l -0.4610635,-0.01926 0.089958,-1.481142 c 0.1089698,-1.794163 0.592172,-3.784938 1.191705,-4.909777 0.6225634,-1.168049 1.4365185,-1.926539 2.738446,-2.551842 1.8963215,-0.910786 2.8965962,-1.091113 8.3596462,-1.507064 3.912117,-0.297864 6.747556,-0.591517 6.867249,-0.71121 0.03898,-0.03899 -0.29309,-0.731838 -0.737946,-1.53967 -1.147089,-2.083052 -1.810713,-3.433915 -1.690329,-3.440817 0.05687,-0.0033 1.280618,0.31699 2.719443,0.71167 2.194313,0.601913 2.625178,0.761348 2.672685,0.988979 0.03115,0.149258 0.242472,2.315447 0.469604,4.813754 0.293939,3.233167 0.412704,5.314216 0.412062,7.220339 l -8.53e-4,2.677965 -1.864406,-0.02666 c -1.025425,-0.01468 -6.013559,-0.06702 -11.084747,-0.116334 z"
         style="fill:#000000;fill-opacity:1;stroke:#000000;stroke-width:0.81355935;stroke-miterlimit:4;stroke-dasharray:none;stroke-opacity:1"
         inkscape:connector-curvature="0" /><path
         id="path5334"
         d="m 9.1610412,34.034102 c 0,-0.216518 1.0725918,-1.779189 1.6545698,-2.410562 0.674679,-0.73194 1.540424,-1.355584 2.064379,-1.487091 0.203912,-0.05118 0.403741,-0.179025 0.444064,-0.284105 0.142805,-0.372142 -0.379232,-1.376059 -1.034052,-1.988567 C 11.242528,26.883988 9.8912609,26.608703 8.1452103,27.019384 7.6983679,27.124483 7.3048811,27.182587 7.2707956,27.1485 7.135686,27.013392 7.5632749,25.813306 7.9433513,25.260884 8.4909488,24.464978 9.1813908,23.914712 10.332917,23.356459 11.419581,22.82965 11.55781,22.702448 11.744446,22.057537 12.071942,20.925893 11.246414,19.252284 9.498212,17.503703 8.6964957,16.701813 8.5821426,16.537745 8.872946,16.6066 c 0.8279,0.196027 2.562685,0.776165 3.028456,1.012761 0.27669,0.140549 0.55848,0.255543 0.6262,0.255543 0.27919,0 0.621729,-1.702217 0.627569,-3.118644 0.0067,-1.619639 -0.227465,-2.329683 -1.079073,-3.272311 -0.653016,-0.722811 -0.636505,-1.178171 0.06959,-1.9193807 l 0.543971,-0.5710206 0.298997,0.4067797 c 1.016851,1.3834086 3.078668,2.4337646 6.09863,3.1068386 0.287098,0.06399 0.473203,-0.01154 0.855445,-0.34715 1.367815,-1.200957 1.397349,-3.1823427 0.06539,-4.3869723 C 19.575926,7.3821622 19.19494,6.5683975 19.19494,6.0361321 c 0,-0.4616363 0.237805,-1.3137709 0.366633,-1.3137709 0.03791,0 0.291257,0.1746905 0.563008,0.3882014 0.766393,0.6021504 1.292403,0.8260393 2.622993,1.1164446 0.676836,0.1477218 1.341732,0.3280548 1.477544,0.4007399 0.439476,0.2351989 0.944675,1.0340252 1.420542,2.2461722 0.255983,0.6520448 0.556749,1.3249157 0.668369,1.4952687 0.164327,0.250795 0.202944,0.865381 0.202944,3.229759 v 2.920025 l -1.728812,-0.0026 c -0.950848,-0.0015 -2.4,-0.09662 -3.22034,-0.211476 -2.624881,-0.367511 -3.130349,-0.386514 -3.771178,-0.141779 -1.657383,0.632961 -2.999862,3.09884 -3.175966,5.833653 -0.07155,1.111129 -0.124594,1.299814 -0.532265,1.893397 -0.443085,0.645144 -0.524691,0.958889 -0.463354,1.781395 0.03479,0.466499 0.573818,1.317381 1.019587,1.60946 0.23037,0.150944 0.339509,0.418349 0.454858,1.114455 0.182584,1.101854 0.972802,2.7973 1.827117,3.920154 l 0.618991,0.813559 -1.921099,0.08536 c -1.737299,0.07719 -3.990667,0.359232 -5.243132,0.656256 -1.0828662,0.256803 -1.2203388,0.275203 -1.2203388,0.163345 z"
         style="fill:#000000;fill-opacity:1;stroke:#000000;stroke-width:0.81355935;stroke-miterlimit:4;stroke-dasharray:none;stroke-opacity:1"
         inkscape:connector-curvature="0" /><circle
         r="1.7066667"
         cy="66.053696"
         cx="4.246243"
         id="path4580-0-1-3"
         style="fill:#000000;stroke:#000000;stroke-width:0.85333335;stroke-miterlimit:4;stroke-dasharray:none;stroke-opacity:1" /><circle
         r="1.7066667"
         cy="66.053696"
         cx="19.121603"
         id="path4580-0-1-6"
         style="fill:#000000;stroke:#000000;stroke-width:0.85333335;stroke-miterlimit:4;stroke-dasharray:none;stroke-opacity:1" /><circle
         r="1.7066667"
         cy="75.076614"
         cx="4.1608152"
         id="path4580-0-1-7"
         style="fill:#000000;stroke:#000000;stroke-width:0.85333335;stroke-miterlimit:4;stroke-dasharray:none;stroke-opacity:1" /><circle
         r="1.7066667"
         cy="65.972786"
         cx="24.814631"
         id="path4580-0-1-5"
         style="fill:#000000;stroke:#000000;stroke-width:0.85333335;stroke-miterlimit:4;stroke-dasharray:none;stroke-opacity:1" /><circle
         r="1.7066667"
         cy="66.053696"
         cx="40.289318"
         id="path4580-0-1-35"
         style="fill:#000000;stroke:#000000;stroke-width:0.85333335;stroke-miterlimit:4;stroke-dasharray:none;stroke-opacity:1" /><circle
         r="1.7066667"
         cy="75.076614"
         cx="36.858459"
         id="path4580-0-1-9"
         style="fill:#000000;stroke:#000000;stroke-width:0.85333335;stroke-miterlimit:4;stroke-dasharray:none;stroke-opacity:1" /><circle
         r="1.7066667"
         cy="66.053696"
         cx="60.394028"
         id="path4580-0-1-1"
         style="fill:#000000;stroke:#000000;stroke-width:0.85333335;stroke-miterlimit:4;stroke-dasharray:none;stroke-opacity:1" /><circle
         r="1.7066667"
         cy="70.386475"
         cx="51.7939"
         id="path4580-0-1-2"
         style="fill:#000000;stroke:#000000;stroke-width:0.85333335;stroke-miterlimit:4;stroke-dasharray:none;stroke-opacity:1" /><circle
         r="1.7066667"
         cy="75.076607"
         cx="62.169037"
         id="path4580-0-1-70"
         style="fill:#000000;stroke:#000000;stroke-width:0.85333335;stroke-miterlimit:4;stroke-dasharray:none;stroke-opacity:1" /><circle
         r="1.7066667"
         cy="66.053696"
         cx="81.801003"
         id="path4580-0-1-2-9"
         style="fill:#000000;stroke:#000000;stroke-width:0.85333335;stroke-miterlimit:4;stroke-dasharray:none;stroke-opacity:1" /><circle
         r="1.7066667"
         cy="75.076607"
         cx="69.265572"
         id="path4580-0-1-2-3"
         style="fill:#000000;stroke:#000000;stroke-width:0.85333335;stroke-miterlimit:4;stroke-dasharray:none;stroke-opacity:1" /><circle
         r="1.7066667"
         cy="66.053696"
         cx="101.27908"
         id="path4580-0-1-2-6"
         style="fill:#000000;stroke:#000000;stroke-width:0.85333335;stroke-miterlimit:4;stroke-dasharray:none;stroke-opacity:1" /><circle
         r="1.7066667"
         cy="75.076607"
         cx="101.23674"
         id="path4580-0-1-2-0"
         style="fill:#000000;stroke:#000000;stroke-width:0.85333335;stroke-miterlimit:4;stroke-dasharray:none;stroke-opacity:1" /><path
         style="fill:none;stroke:#000000;stroke-width:1.27999997;stroke-linecap:butt;stroke-linejoin:miter;stroke-miterlimit:4;stroke-dasharray:none;stroke-opacity:1"
         d="m 4.144018,75.278281 -0.00514,-9.320913 h 15.167113 l -0.01934,4.517227 -15.0025444,0.03614"
         id="path993"
         inkscape:connector-curvature="0"
         sodipodi:nodetypes="ccccc" /><path
         style="fill:none;stroke:#000000;stroke-width:1.27999997;stroke-linecap:butt;stroke-linejoin:miter;stroke-miterlimit:4;stroke-dasharray:none;stroke-opacity:1"
         d="m 24.814627,65.972787 15.510851,-0.01542 -0.0014,4.553365 -15.896098,-0.07228"
         id="path995"
         inkscape:connector-curvature="0"
         sodipodi:nodetypes="cccc" /><path
         style="fill:none;stroke:#000000;stroke-width:1.27999997;stroke-linecap:butt;stroke-linejoin:miter;stroke-miterlimit:4;stroke-dasharray:none;stroke-opacity:1"
         d="m 24.814627,65.972787 -0.144552,9.479681"
         id="path997"
         inkscape:connector-curvature="0"
         sodipodi:nodetypes="cc" /><path
         style="fill:none;stroke:#000000;stroke-width:1.27999997;stroke-linecap:butt;stroke-linejoin:miter;stroke-miterlimit:4;stroke-dasharray:none;stroke-opacity:1"
         d="m 59.720819,65.968532 -14.811277,0.0043 -0.05641,8.910577 h 16.916345"
         id="path1001"
         inkscape:connector-curvature="0"
         sodipodi:nodetypes="cccc" /><path
         style="fill:none;stroke:#000000;stroke-width:1.27999997;stroke-linecap:butt;stroke-linejoin:miter;stroke-miterlimit:4;stroke-dasharray:none;stroke-opacity:1"
         d="M 81.483789,65.957368 H 65.230936 l 6e-6,4.444952 16.785324,0.108413 0.01659,4.372676 H 70.125933"
         id="path1003"
         inkscape:connector-curvature="0"
         sodipodi:nodetypes="cccccc" /><path
         style="fill:none;stroke:#000000;stroke-width:1.27999997;stroke-linecap:butt;stroke-linejoin:miter;stroke-miterlimit:4;stroke-dasharray:none;stroke-opacity:1"
         d="m 45.152368,70.510733 h 5.541998"
         id="path1005"
         inkscape:connector-curvature="0"
         sodipodi:nodetypes="cc" /><path
         style="fill:none;stroke:#000000;stroke-width:1.27999997;stroke-linecap:butt;stroke-linejoin:miter;stroke-miterlimit:4;stroke-dasharray:none;stroke-opacity:1"
         d="m 101.06228,65.957368 -14.704723,0.207445 0.05711,8.718596 h 14.828303"
         id="path1007"
         inkscape:connector-curvature="0"
         sodipodi:nodetypes="cccc" /><path
         style="fill:none;stroke:#000000;stroke-width:1.27999997;stroke-linecap:butt;stroke-linejoin:miter;stroke-miterlimit:4;stroke-dasharray:none;stroke-opacity:1"
         d="m 68.531021,58.575871 v 7.458367"
         id="path1032"
         inkscape:connector-curvature="0"
         sodipodi:nodetypes="cc" /><circle
         r="1.7066667"
         cy="75.076614"
         cx="24.652374"
         id="path4580-0-1-70-6"
         style="fill:#000000;stroke:#000000;stroke-width:0.85333335;stroke-miterlimit:4;stroke-dasharray:none;stroke-opacity:1" /><path
         style="fill:none;stroke:#000000;stroke-width:1.27999997;stroke-linecap:butt;stroke-linejoin:miter;stroke-miterlimit:4;stroke-dasharray:none;stroke-opacity:1"
         d="M 86.357557,66.164813 V 61.972825 H 59.42995"
         id="path1051"
         inkscape:connector-curvature="0"
         sodipodi:nodetypes="ccc" /><path
         style="fill:none;stroke:#000000;stroke-width:1.27999997;stroke-linecap:butt;stroke-linejoin:miter;stroke-miterlimit:4;stroke-dasharray:none;stroke-opacity:1"
         d="m 43.81404,57.692994 -9.392508,3.986314"
         id="path1051-2"
         inkscape:connector-curvature="0"
         sodipodi:nodetypes="cc" /><path
         style="fill:none;stroke:#000000;stroke-width:1.27999997;stroke-linecap:butt;stroke-linejoin:miter;stroke-miterlimit:4;stroke-dasharray:none;stroke-opacity:1"
         d="m 11.141238,65.465815 v 0 l -0.07848,-3.929008 23.230699,0.142502 -0.03532,4.297572"
         id="path915"
         inkscape:connector-curvature="0"
         sodipodi:nodetypes="ccccc" /><circle
         r="1.7066667"
         cy="61.683926"
         cx="34.241421"
         id="path4580-0-1-2-36"
         style="fill:#000000;stroke:#000000;stroke-width:0.85333335;stroke-miterlimit:4;stroke-dasharray:none;stroke-opacity:1" /><path
         style="fill:none;stroke:#000000;stroke-width:1.27999997;stroke-linecap:butt;stroke-linejoin:miter;stroke-miterlimit:4;stroke-dasharray:none;stroke-opacity:1"
         d="m 33.387304,70.655283 3.61378,3.958612"
         id="path934"
         inkscape:connector-curvature="0"
         sodipodi:nodetypes="cc" /></g></g></svg>